<svg fill="none" height="72" viewBox="0 0 134 72" width="134" xmlns="http://www.w3.org/2000/svg" xmlns:xlink="http://www.w3.org/1999/xlink"><clipPath id="a"><path d="m.938354 0h132.34v71.34h-132.34z"/></clipPath><g clip-path="url(#a)"><path clip-rule="evenodd" d="m110.198 0c-13.5396 0-23.1996 7.72-23.1996 18.64 0 8.06 5.59 13.61 11.33 18.46 5.7396 4.85 8.8996 9.85 10.9696 16.61h1.68c2.06-6.76 5.23-11.75 10.97-16.61 5.74-4.85 11.33-10.4 11.33-18.46 0-10.91-9.65-18.64-23.2-18.64" fill="#de2525" fill-rule="evenodd"/><path clip-rule="evenodd" d="m110.148 71.34c-4 0-7.25-3.25-7.25-7.25s3.25-7.25 7.25-7.25 7.25 3.25 7.25 7.25c.01 4-3.24 7.25-7.25 7.25z" fill="#de2525" fill-rule="evenodd"/><g fill="#fff"><path d="m54.2483 33.68h-23.76v8.26h9.65v29.28h8.58v-29.29h9.65v-4.13c0-2.27-1.84-4.12-4.12-4.12z"/><path d="m79.9384 62.95h-9.28v-24.98c0-2.37-1.92-4.29-4.29-4.29h-4.29v30.85c0 3.69 2.99 6.68 6.68 6.68h15.3v-4.13c.01-2.28-1.84-4.13-4.12-4.13z"/><path d="m21.9084 57.43c4.13-2.09 6.92-6.27 6.92-10.88 0-7.13-5.74-12.87-12.87-12.87h-6.76005c-4.56 0-8.259996 3.7-8.259996 8.26v29.27h8.579996v-12.33h4.08005l7.08 12.33h9.22zm-5.96-6.06h-6.43005v-7.24c0-1.37.97005-2.41 2.14005-2.41h4.29c2.36 0 4.29 2.09 4.29 4.83 0 2.73-1.93 4.82-4.29 4.82z"/><path d="m23.5384 16.93c0 6.26-4.54 11.09-10.04 11.09-2.81 0-4.87005-.97-6.26005-2.56v1.97h-6.299996v-26.13h6.299996v7.1c1.39-1.6 3.44005-2.56 6.26005-2.56 5.5 0 10.04 4.83 10.04 11.09zm-6.3 0c0-3.15-2.1-5.12-5-5.12-2.90005 0-5.00005 1.97-5.00005 5.12s2.1 5.12 5.00005 5.12c2.9 0 5-1.97 5-5.12z"/><path d="m42.8283 22.39c1.72 0 3.19-.67 4.03-1.6l5.04 2.9c-2.06 2.86-5.17 4.33-9.16 4.33-7.18 0-11.64-4.83-11.64-11.09s4.54-11.09 11.18-11.09c6.13 0 10.67 4.75 10.67 11.09 0 .88-.08 1.72-.25 2.52h-14.91c.79 2.18 2.73 2.94 5.04 2.94zm3.86-7.65c-.67-2.44-2.56-3.32-4.45-3.32-2.39 0-3.99 1.18-4.58 3.32z"/><path d="m62.2184 1.3h6.3v26.13h-6.3z"/></g></g></svg>