<svg fill="none" height="78" viewBox="0 0 111 78" width="111" xmlns="http://www.w3.org/2000/svg" xmlns:xlink="http://www.w3.org/1999/xlink"><linearGradient id="a" gradientUnits="userSpaceOnUse" x1="10.0115" x2="101.667" y1="48.2321" y2="48.2321"><stop offset="0" stop-color="#30529e"/><stop offset=".1" stop-color="#00529e"/><stop offset=".2" stop-color="#007ec3"/><stop offset=".3" stop-color="#0099a5"/><stop offset=".4" stop-color="#008b7a"/><stop offset=".5" stop-color="#8dbe22"/><stop offset=".6" stop-color="#c7db90"/><stop offset=".7" stop-color="#ffde51"/><stop offset=".8" stop-color="#ffda00"/><stop offset=".9" stop-color="#f08223"/><stop offset="1" stop-color="#e5231b"/></linearGradient><clipPath id="b"><path d="m.855103 0h110.083v77.9241h-110.083z"/></clipPath><mask id="c" height="111" maskUnits="userSpaceOnUse" width="111" x="0" y="-17"><path d="m.849457-16.0795h109.975543v109.976h-109.975543z" fill="#fff"/></mask><g clip-path="url(#b)"><g fill="#fff" mask="url(#c)"><path d="m21.7792 66.9678c0-2.0873-1.6589-3.7729-3.6925-3.7729h-6.6627v7.5455h6.6627c2.0336 0 3.6925-1.6856 3.6925-3.7726zm-10.3552-12.2821v7.1712h6.0472c1.9265 0 3.5053-1.6055 3.5053-3.5854 0-1.9802-1.5788-3.5858-3.5053-3.5858zm11.7734 12.2821c0 2.8361-2.2745 5.1105-5.1107 5.1105h-8.0809v-18.7303h7.4654c2.7293 0 4.9234 2.2209 4.9234 4.9235 0 1.8194-.9633 3.3178-2.4081 4.0938 1.8729.7224 3.2109 2.4618 3.2109 4.6025z"/><path d="m26.608 64.7737h10.7566c-.2943-3.2645-2.5955-5.0839-5.2177-5.0839-3.0505 0-5.2714 2.1137-5.5389 5.0839zm12.148.6688c0 .2141-.0268.4281-.0268.6422h-12.1212c.3211 3.0238 2.6222 5.0037 5.6726 5.0037 2.1941 0 3.8532-1.0167 4.6291-2.4349l1.1773.6957c-1.097 1.8194-3.1841 3.0235-5.8331 3.0235-4.1208 0-7.0373-2.9432-7.0373-6.9837 0-3.9334 2.8363-6.9836 6.9303-6.9836 4.0671 0 6.6091 3.3714 6.6091 7.0371z"/><path d="m41.4055 52.5452h1.3379v19.5333h-1.3379z"/><path d="m58.1705 65.3891c0-3.184-2.4885-5.6993-5.6726-5.6993-3.1842 0-5.6727 2.5153-5.6727 5.6993 0 3.1842 2.4885 5.6994 5.6727 5.6994 3.1841 0 5.6726-2.5152 5.6726-5.6994zm1.338-6.6893v12.7366c0 4.0136-2.9703 6.288-6.6628 6.288-3.1307 0-5.3515-1.2574-6.3148-3.2109l1.1774-.6689c.6956 1.4182 2.194 2.5955 5.1374 2.5955 3.3448 0 5.3248-1.9533 5.3248-5.0037v-2.4616c-1.0971 2.0603-3.1574 3.3981-5.7529 3.3981-3.8264 0-6.9302-3.0236-6.9302-6.9838 0-3.96 3.1038-6.9836 6.9302-6.9836 2.5955 0 4.6558 1.3377 5.7529 3.3981v-3.1038z"/><path d="m63.0745 58.6997h1.3378v13.3788h-1.3378zm-.4014-4.3081c0-.562.4817-1.0434 1.0703-1.0434.5887 0 1.0702.4814 1.0702 1.0434 0 .5888-.4815 1.0703-1.0702 1.0703-.5886 0-1.0703-.4815-1.0703-1.0703z"/><path d="m78.9726 58.6997v13.3787h-1.3378v-2.5418c-1.0169 1.9799-2.7294 2.8361-4.7897 2.8361-3.1841 0-5.191-2.1136-5.191-5.3515v-8.3215h1.3647v8.3215c0 2.4618 1.4181 4.0672 3.9333 4.0672 2.6223 0 4.6827-1.7125 4.6827-5.3247v-7.064z"/><path d="m101.669 63.5961v8.4823h-1.337v-8.4823c0-2.5418-1.4722-3.9064-3.5592-3.9064-2.2476 0-4.0137 1.4984-4.0137 4.9234v7.4653h-1.3378v-8.4823c0-2.5418-1.3646-3.9064-3.425-3.9064-2.1942 0-4.1475 1.4984-4.1475 4.9234v7.4653h-1.3379v-13.3788h1.3379v2.3011c.99-1.8463 2.5955-2.5954 4.308-2.5954 1.9533 0 3.4786.9632 4.1742 2.7292.9632-1.873 2.6757-2.7292 4.4686-2.7292 2.8363 0 4.8694 1.8461 4.8694 5.1908z"/></g><path d="m10.0115 48.8829h91.6555v-1.3015h-91.6555z" fill="url(#a)"/><g fill="#fff"><path d="m68.8196.0870976h-26.1826v9.1018824h10.6385v32.27012h9.4565v-32.27012h10.6385v-4.55096c0-2.51312-2.0365-4.5509224-4.5509-4.5509224z"/><path d="m97.1477 32.3573h-10.2248v-27.54198c0-2.61138-2.117-4.7282529-4.7283-4.7282529h-4.7282v34.0072329c0 4.0675 3.2973 7.3648 7.3648 7.3648h16.8678v-4.5509c0-2.5134-2.0379-4.5509-4.5513-4.5509z"/><path d="m26.6102 19.5909h-7.0923v-7.9789c0-1.5071 1.0638-2.65957 2.364-2.65957h4.7282l.0001.00006c2.6005 0 4.7282 2.30501 4.7282 5.31921s-2.1277 5.3192-4.7282 5.3192zm6.5603 6.6786c4.5509-2.305 7.6242-6.915 7.6242-11.9978 0-7.86065-6.3239-14.1845454-14.1845-14.1845454h-7.4396c-5.0308 0-9.1091 4.0782954-9.1091 9.1091454v32.2626h9.4564v-13.5936h4.4917l7.8016 13.5936h10.1656z"/></g></g></svg>