<svg fill="none" height="72" viewBox="0 0 134 72" width="134" xmlns="http://www.w3.org/2000/svg" xmlns:xlink="http://www.w3.org/1999/xlink"><clipPath id="a"><path d="m.985107 0h132.87v71.33h-132.87z"/></clipPath><g clip-path="url(#a)"><g fill="#fff"><path d="m55.0851 1.23h-23.86v8.29999h9.7v29.41001h8.62v-29.42h9.7v-4.15c-.01-2.29-1.87-4.14-4.16-4.14z"/><path d="m80.9051 30.64h-9.32v-25.1c0-2.38-1.93-4.31-4.31-4.31h-4.31v30.99c0 3.71 3.01 6.71 6.71 6.71h15.37v-4.15c0-2.29-1.85-4.14-4.14-4.14z"/><path d="m22.5951 25.09c4.15-2.1 6.95-6.3 6.95-10.93 0-7.16-5.76-12.93-12.93-12.93h-6.77999c-4.59 0-8.3 3.72-8.3 8.29999v29.40001h8.61999v-12.39h4.09l7.11 12.39h9.26zm-5.98-6.09h-6.46v-7.27c0-1.37.97-2.42 2.15-2.42h4.31c2.37 0 4.31 2.1 4.31 4.85 0 2.74-1.94 4.84-4.31 4.84z"/><path d="m.985107 59.59c0-6.29 4.770003-11.14 11.179993-11.14 4.09 0 7.72 2.15 9.54 5.4l-5.53 3.21c-.72-1.48-2.24-2.36-4.09-2.36-2.73999 0-4.76999 1.98-4.76999 4.89s2.03 4.89 4.76999 4.89c1.86 0 3.42-.89 4.09-2.36l5.53 3.16c-1.81 3.29-5.4 5.44-9.54 5.44-6.40999.01-11.179993-4.84-11.179993-11.13z"/><path d="m25.2951 43.9h6.33v26.25h-6.33z"/><path d="m57.2751 49.04v21.1h-6.33v-1.98c-1.14 1.56-3.25 2.57-6.03 2.57-4.26 0-7.89-3.04-7.89-8.73v-12.96h6.33v12.03c0 2.62 1.65 3.84 3.67 3.84 2.32 0 3.92-1.35 3.92-4.35v-11.52z"/><path d="m85.6751 59.59c0 6.29-4.56 11.14-10.09 11.14-2.83 0-4.89-.97-6.29-2.57v1.98h-6.33v-26.24h6.33v7.13c1.39-1.6 3.46-2.57 6.29-2.57 5.53-.01 10.09 4.85 10.09 11.13zm-6.33 0c0-3.16-2.11-5.15-5.02-5.15s-5.02 1.98-5.02 5.15 2.11 5.15 5.02 5.15 5.02-1.98 5.02-5.15z"/></g><path clip-rule="evenodd" d="m110.775 0c-13.5399 0-23.1899 7.72-23.1899 18.63 0 8.06 5.59 13.61 11.33 18.46 5.7299 4.85 8.8999 9.84 10.9599 16.6h1.68c2.06-6.76 5.23-11.75 10.96-16.6s11.33-10.4 11.33-18.46c.01-10.91-9.64-18.63-23.18-18.63" fill="#03c99f" fill-rule="evenodd"/><path clip-rule="evenodd" d="m110.725 71.33c-4 0-7.25-3.25-7.25-7.25s3.25-7.25 7.25-7.25 7.25 3.25 7.25 7.25c.01 4-3.24 7.25-7.25 7.25z" fill="#03c99f" fill-rule="evenodd"/></g></svg>