<svg width="227" height="80" viewBox="0 0 227 80" fill="none" xmlns="http://www.w3.org/2000/svg">
<path d="M144.435 20.0075L142.228 17.0177C142.077 16.8139 141.834 16.7014 141.581 16.7195L140.522 16.7928C140.294 16.8089 140.118 16.9977 140.118 17.2266V19.9623C140.118 20.351 139.817 20.6734 139.43 20.7005L138.39 20.7728C137.962 20.8029 137.599 20.4635 137.599 20.0346V9.71654C137.599 9.32788 137.899 9.0055 138.287 8.97838L142.893 8.65701C145.446 8.47925 147.331 9.99674 147.331 12.3327C147.331 13.9135 146.467 15.2472 145.114 15.9914C144.882 16.1189 144.809 16.4162 144.966 16.6281L146.754 19.0484C147.1 19.5174 146.792 20.1853 146.211 20.2255L145.081 20.3038C144.829 20.3219 144.585 20.2084 144.434 20.0055L144.435 20.0075ZM140.119 13.9868C140.119 14.265 140.355 14.4859 140.633 14.4658L142.62 14.3272C143.872 14.2399 144.728 13.5278 144.728 12.5145C144.728 11.5012 143.872 10.9076 142.62 10.995L140.565 11.1386C140.313 11.1557 140.119 11.3656 140.119 11.6177V13.9868Z" fill="#0050FF"/>
<path d="M157.643 17.5751L152.989 17.8995C152.82 17.9116 152.673 18.019 152.611 18.1757L152.13 19.3929C152.025 19.658 151.777 19.8388 151.493 19.8589L150.301 19.9423C149.759 19.9804 149.362 19.4381 149.562 18.9329L153.757 8.32258C153.861 8.05745 154.109 7.87668 154.394 7.85659L156.226 7.72904C156.543 7.70695 156.838 7.88873 156.961 8.18098L161.156 18.2068C161.351 18.6738 161.03 19.1951 160.525 19.2302L159.238 19.3196C158.922 19.3417 158.627 19.1599 158.504 18.8667L158.076 17.8433C158.004 17.6695 157.829 17.5621 157.642 17.5751H157.643ZM156.861 14.6547L155.726 11.933C155.584 11.5916 155.098 11.5956 154.962 11.94L153.827 14.8194C153.716 15.1016 153.937 15.4029 154.24 15.3818L156.511 15.2231C156.792 15.203 156.972 14.9138 156.862 14.6526L156.861 14.6547Z" fill="#0050FF"/>
<path d="M163.902 7.88271C163.902 7.49405 164.203 7.17167 164.59 7.14456L168.117 6.8985C172.075 6.62232 174.885 8.86591 174.885 12.3187C174.885 15.7714 172.075 18.4238 168.117 18.7L164.693 18.939C164.265 18.9691 163.901 18.6297 163.901 18.2008V7.88271H163.902ZM168.443 16.376C170.687 16.2193 172.281 14.6145 172.281 12.5015C172.281 10.3884 170.687 9.02258 168.443 9.17925L166.926 9.2847C166.641 9.30479 166.421 9.5418 166.421 9.82702V15.9351C166.421 16.2505 166.688 16.4995 167.003 16.4775L168.444 16.377L168.443 16.376Z" fill="#0050FF"/>
<path d="M178.418 6.18142L179.475 6.10811C179.903 6.07798 180.266 6.41743 180.266 6.84626V17.1644C180.266 17.553 179.966 17.8754 179.578 17.9025L178.522 17.9758C178.094 18.006 177.73 17.6665 177.73 17.2377V6.91958C177.73 6.53092 178.031 6.20854 178.418 6.18142Z" fill="#0050FF"/>
<path d="M183.008 11.7532C183.008 8.43807 185.886 5.45432 189.263 5.21931C192.672 4.9813 195.517 7.56635 195.517 10.8815C195.517 14.1967 192.673 17.1955 189.263 17.4325C185.887 17.6675 183.008 15.0684 183.008 11.7532ZM192.929 11.0623C192.929 9.01855 191.25 7.38256 189.263 7.52115C187.292 7.65874 185.613 9.52773 185.613 11.5715C185.613 13.6152 187.292 15.2683 189.263 15.1307C191.25 14.9921 192.929 13.1231 192.929 11.0613V11.0623Z" fill="#0050FF"/>
<path d="M101.289 32.269C98.9435 30.1097 95.9346 29.1426 92.3443 29.3937C88.1936 29.6849 85.0371 31.2034 82.9612 33.908L82.5876 34.393V30.9644L74.02 31.5649V63.3579L82.5876 62.7573V45.5939C82.5876 42.9958 83.2474 40.9742 84.55 39.5862C85.8525 38.1973 87.6141 37.416 89.7854 37.2643C91.7367 37.1287 93.3205 37.5777 94.4915 38.603C95.6605 39.6274 96.254 41.2082 96.254 43.2991V61.8002L104.823 61.1996V41.6912C104.823 37.5987 103.635 34.4272 101.29 32.267L101.289 32.269Z" fill="#0050FF"/>
<path d="M122.121 28.1955V20.9616L113.553 22.4299V28.7951L107.831 29.1978V36.4599L113.553 36.0591V49.8903C113.553 54.2409 114.765 57.2196 117.156 58.7441C118.57 59.645 120.63 60.1019 123.28 60.1019C125.081 60.1019 127.18 59.89 129.519 59.4712L129.553 59.4652V51.9651L129.507 51.9712C127.9 52.168 126.53 52.2745 125.433 52.2885C124.352 52.3016 123.519 52.0746 122.96 51.6167C122.542 51.2742 122.278 50.75 122.173 50.052C122.138 49.819 122.12 49.5679 122.12 49.2967V35.4596L129.552 34.9394V27.6763L122.12 28.1965L122.121 28.1955Z" fill="#0050FF"/>
<path d="M193.961 46.7408C192.635 47.5673 191.104 48.0464 189.408 48.1649C186.887 48.3417 184.773 47.6728 183.124 46.1764C181.887 45.0556 181.107 43.6436 180.794 41.9634C180.69 41.404 180.638 40.8145 180.638 40.1968C180.638 37.6821 181.475 35.5309 183.126 33.8035C184.778 32.0751 186.894 31.109 189.414 30.9322C191.066 30.8167 192.573 31.0929 193.898 31.7537C194.64 32.1233 195.286 32.5963 195.824 33.1608L201.607 26.667C200.63 25.7822 199.499 25.021 198.245 24.4033C196.007 23.3016 193.522 22.7422 190.859 22.7422C190.408 22.7422 189.942 22.7583 189.475 22.7914C184.531 23.1379 180.351 25.0561 177.048 28.4928C173.745 31.9295 172.071 36.0682 172.071 40.7934C172.071 41.6792 172.13 42.5368 172.247 43.3644C172.756 46.9517 174.366 49.9827 177.05 52.399C180.353 55.3737 184.534 56.7064 189.481 56.3619C192.673 56.138 195.623 55.1729 198.249 53.4917C200.183 52.2534 201.825 50.7349 203.133 48.9784L196.491 44.2723C195.858 45.2615 195.007 46.093 193.963 46.7438L193.961 46.7408Z" fill="#0050FF"/>
<path d="M218.93 21.4909V14.257L210.363 15.7252V22.0925L204.64 22.4932V29.7562L210.363 29.3555V29.3565V43.1876C210.363 44.2753 210.438 45.2766 210.59 46.1915C211.043 48.9362 212.174 50.8966 213.967 52.0395C215.381 52.9403 217.442 53.3973 220.091 53.3973C221.891 53.3973 223.99 53.1854 226.33 52.7666L226.364 52.7606V45.2605L226.318 45.2665C224.71 45.4634 223.339 45.5708 222.245 45.5839C221.174 45.5999 220.33 45.37 219.772 44.912C219.354 44.5695 219.091 44.0453 218.985 43.3473C218.95 43.1143 218.931 42.8633 218.931 42.5921V28.7549L226.364 28.2347V20.9717L218.931 21.4919L218.93 21.4909Z" fill="#0050FF"/>
<path d="M40.348 61.7922C43.6943 64.785 47.8571 66.1297 52.7119 65.7913C57.5666 65.4518 61.7365 63.5236 65.1049 60.0608C67.1135 57.9959 68.5446 55.664 69.3601 53.1301C69.813 51.4901 70.044 49.7457 70.044 47.949C70.044 40.5473 66.2869 37.2703 65.1019 36.2188C63.4498 34.7516 61.5798 33.6689 59.5451 33.0001C59.1173 32.8695 58.6804 32.755 58.2476 32.6596C55.3833 32.0249 52.3092 32.6385 49.8155 34.3418C42.8236 39.1172 40.5579 46.9146 40.5047 47.0753L40.4927 47.1114C40.2928 47.722 40.0186 48.5606 39.1278 48.5857C39.1198 48.5857 39.1117 48.5857 39.1037 48.5857C38.3254 48.5857 37.9769 47.5613 37.7218 46.8111L37.6806 46.6896C37.4195 45.9273 37.1684 45.0948 36.9354 44.215L36.9294 44.1909L36.9224 44.1628C36.9164 44.1447 36.9063 44.1287 36.8973 44.1116C36.8471 44.0212 36.7527 43.9589 36.6432 43.9589C36.5267 43.9589 36.4303 44.0132 36.3921 44.1005L36.3469 44.219C35.655 46.1061 35.3035 48.1257 35.3035 50.2217C35.3035 54.9057 37.0017 58.7974 40.349 61.7912L40.348 61.7922ZM43.8701 49.6282C43.8701 47.1134 44.7187 44.9512 46.3909 43.2007C47.6573 41.874 49.1979 40.9862 50.9704 40.5604C51.5318 40.4258 52.1173 40.3364 52.7119 40.2953C55.2317 40.1205 57.3688 40.7974 59.062 42.3119C60.7553 43.8254 61.6129 45.8671 61.6129 48.3798C61.6129 50.8956 60.7543 53.0588 59.059 54.8113C58.4153 55.4762 57.6952 56.0386 56.9209 56.4815C55.6705 57.1945 54.2525 57.6113 52.7049 57.7198C52.4447 57.7378 52.1876 57.7469 51.9376 57.7469C49.7512 57.7469 47.8843 57.0589 46.3879 55.7011C44.7167 54.1857 43.8691 52.1439 43.8691 49.6302L43.8701 49.6282Z" fill="#0050FF"/>
<path d="M158.805 28.6113C158.812 28.5651 157.765 27.6904 157.348 27.4263C157.269 27.372 156.749 26.892 155.132 26.2623C155.078 26.2412 155.02 26.2221 154.965 26.202C153.182 25.5402 150.673 25.3946 150.558 25.3916C140.918 24.8462 132.47 33.7091 132.706 43.3333C132.462 52.2574 139.874 59.7906 148.734 58.9982C153.288 58.6839 156.845 56.8952 159.412 53.7136C159.412 53.7136 159.412 57.3622 159.412 57.3632L167.981 56.7627V24.9677L159.412 25.5683V29.2219C159.412 29.2219 158.89 28.6947 158.803 28.6113H158.805ZM159.413 41.4633C159.539 46.9326 154.88 51.1527 149.5 51.0332C144.748 51.0874 141.183 47.5764 141.276 42.7367C141.186 37.5817 145.196 33.4731 150.314 33.1999C152.921 33.0172 155.112 33.7021 156.829 35.2366C158.544 36.7712 159.414 38.8662 159.414 41.4633H159.413Z" fill="#0050FF"/>
<path d="M71.668 16.383C69.3852 15.4983 68.402 14.4277 67.6217 11.9782C65.2154 4.42391 57.9865 0.517211 45.5212 0.0361546C44.8935 0.0120515 44.2658 0 43.6532 0C35.653 0 28.7154 2.05077 23.0331 6.09405C22.9738 6.13623 22.9105 6.18243 22.8443 6.23064L22.8181 6.24972C21.9715 6.86535 20.5555 7.89475 18.576 7.97308C14.0708 8.15285 6.52951 8.45515 1.2871 12.63C0.957692 12.8921 0.575056 13.2898 0.622258 13.6945C0.657408 13.9898 0.925554 14.2559 1.41967 14.4859C8.31816 17.6956 8.80323 21.1012 7.30985 25.8977C6.8539 27.362 6.53755 28.5721 6.31459 29.706C3.7205 42.8733 7.75375 55.8498 17.1037 64.4184C28.1379 74.5306 40.8693 74.0948 47.4745 72.9338L47.5047 72.9288C48.0028 72.8565 48.277 72.5974 48.3172 72.1605C48.3995 71.2767 47.5589 71.2175 47.4956 71.2114C39.9524 70.4984 33.2919 66.6509 28.875 60.2817C22.7448 51.4419 22.1031 40.4399 24.6299 31.807C24.7333 31.4525 25.0487 31.2255 25.4022 31.2255C25.7748 31.2255 26.1032 31.4826 26.1855 31.8431C26.6104 34.0797 27.9019 41.4492 29.1663 41.4492C29.802 41.4492 29.9858 40.6548 30.2017 40.0281C33.7328 29.7954 42.1628 23.3348 52.7481 22.7091C55.8142 22.4911 58.9496 22.5434 61.9816 22.5926C63.3364 22.6147 64.7353 22.6388 66.1062 22.6368C67.8436 22.6358 69.6052 22.2813 71.4892 21.5551C73.2748 20.8672 74.2098 19.8268 74.2681 18.4629C74.3183 17.2809 73.319 16.9464 72.2605 16.5909C72.2605 16.5909 71.9421 16.4885 71.668 16.382V16.383Z" fill="#0050FF"/>
<path d="M127.584 69.7331V72.4437L133.846 72.0078V74.4282L127.584 74.864V79.8132L124.897 80V67.5006L134.5 66.8317V69.251L127.584 69.7331Z" fill="#0050FF"/>
<path d="M143.374 75.7468L145.063 77.3577C144.228 78.2897 142.612 78.9836 141.233 79.0801C138.438 79.2749 136.26 77.3708 136.26 74.4774C136.26 71.584 138.347 69.4378 141.088 69.247C144.028 69.0422 145.753 71.1602 145.753 74.7074L138.983 75.1794C139.291 76.1767 140.108 76.8114 141.215 76.734C141.959 76.6818 142.867 76.2731 143.375 75.7468H143.374ZM139.018 73.2662L143.211 72.974C142.957 72.0641 142.267 71.5117 141.196 71.586C140.198 71.6553 139.363 72.2961 139.018 73.2662Z" fill="#0050FF"/>
<path d="M154.591 74.9654L156.28 76.5763C155.445 77.5083 153.829 78.2023 152.45 78.2987C149.655 78.4935 147.477 76.5894 147.477 73.696C147.477 70.8026 149.564 68.6565 152.305 68.4657C155.245 68.2608 156.97 70.3788 156.97 73.926L150.2 74.398C150.508 75.3953 151.325 76.03 152.432 75.9527C153.176 75.9004 154.084 75.4917 154.592 74.9654H154.591ZM150.235 72.4848L154.428 72.1926C154.174 71.2827 153.484 70.7303 152.413 70.8047C151.415 70.874 150.58 71.5147 150.235 72.4848Z" fill="#0050FF"/>
<path d="M159.219 64.8904L161.87 64.7056V77.424L159.219 77.6088V64.8904Z" fill="#0050FF"/>
<path d="M175.936 69.4208L181.453 69.0361V74.1851C180.201 75.5821 178.277 76.499 176.408 76.6286C172.795 76.8807 169.728 74.1279 169.728 70.6169C169.728 67.1059 172.795 63.9444 176.408 63.6923C178.277 63.5617 180.201 64.2105 181.453 65.4327L179.511 67.3148C178.767 66.5113 177.551 66.0504 176.408 66.1297C174.284 66.2773 172.487 68.2588 172.487 70.4241C172.487 72.5893 174.284 74.3378 176.408 74.1902C177.26 74.1309 178.132 73.7794 178.84 73.22V71.3098L175.936 71.5117V69.4198V69.4208Z" fill="#0050FF"/>
<path d="M183.559 71.2004C183.559 68.526 185.9 66.1247 188.696 65.9299C191.473 65.736 193.797 67.8129 193.797 70.4874C193.797 73.1618 191.474 75.5801 188.696 75.774C185.901 75.9688 183.559 73.8758 183.559 71.2014V71.2004ZM191.273 70.6631C191.273 69.2079 190.093 68.071 188.696 68.1684C187.28 68.2669 186.101 69.5684 186.101 71.0236C186.101 72.4789 187.281 73.6348 188.696 73.5354C190.094 73.438 191.273 72.1183 191.273 70.6631Z" fill="#0050FF"/>
<path d="M195.519 70.3668C195.519 67.6924 197.86 65.2911 200.656 65.0963C203.433 64.9025 205.757 66.9793 205.757 69.6538C205.757 72.3282 203.434 74.7465 200.656 74.9404C197.861 75.1352 195.519 73.0423 195.519 70.3678V70.3668ZM203.233 69.8295C203.233 68.3743 202.053 67.2374 200.656 67.3349C199.24 67.4333 198.061 68.7348 198.061 70.1901C198.061 71.6453 199.241 72.8012 200.656 72.7018C202.054 72.6044 203.233 71.2847 203.233 69.8295Z" fill="#0050FF"/>
<path d="M217.663 60.818V73.5364L215.013 73.7212V72.3744C214.269 73.4089 213.18 74.0667 211.854 74.1591C209.35 74.3338 207.535 72.4226 207.535 69.5293C207.535 66.6359 209.35 64.4907 211.854 64.316C213.179 64.2236 214.269 64.7297 215.013 65.6607V61.0028L217.663 60.818ZM215.013 69.008C215.013 67.4433 214.014 66.4029 212.616 66.5003C211.146 66.6027 210.112 67.7848 210.112 69.3495C210.112 70.9142 211.146 71.9707 212.616 71.8683C214.014 71.7708 215.013 70.5918 215.013 69.008Z" fill="#0050FF"/>
</svg>
