<svg fill="none" height="81" viewBox="0 0 133 81" width="133" xmlns="http://www.w3.org/2000/svg"><g fill="#fff"><path d="m53.8283 1.29999h-23.86v8.3h9.7v29.40001h8.61v-29.41001h9.7v-4.15c0-2.29-1.86-4.14-4.15-4.14z"/><path d="m79.6483 30.71h-9.32v-25.11001c0-2.38-1.93-4.31-4.31-4.31h-4.31v30.99001c0 3.71 3.01 6.71 6.71 6.71h15.37v-4.15c0-2.28-1.85-4.13-4.14-4.13z"/><path d="m21.3383 25.16c4.15-2.1 6.95-6.3 6.95-10.93 0-7.16001-5.76-12.93001-12.93-12.93001h-6.77998c-4.58 0-8.3 3.71-8.3 8.3v29.40001h8.62v-12.39h4.08998l7.11 12.39h9.26zm-5.98-6.09h-6.45998v-7.27c0-1.37.97-2.42001 2.14998-2.42001h4.31c2.37 0 4.31 2.10001 4.31 4.85001 0 2.74-1.94 4.84-4.31 4.84z"/><path d="m22.9783 60.66c0 6.29-4.56 11.14-10.08 11.14-2.83 0-4.88998-.97-6.28998-2.57v10.42h-6.33v-29.54h6.33v1.98c1.39-1.6 3.45998-2.57 6.28998-2.57 5.52 0 10.08 4.85 10.08 11.14zm-6.33 0c0-3.16-2.11-5.15-5.02-5.15-2.90998 0-5.01998 1.98-5.01998 5.15s2.11 5.15 5.01998 5.15c2.91 0 5.02-1.98 5.02-5.15z"/><path d="m26.6483 44.96h6.33v26.25h-6.33z"/><path d="m57.6383 50.11v21.1h-6.33v-1.98c-1.14 1.56-3.25 2.57-6.03 2.57-4.26 0-7.89-3.04-7.89-8.73v-12.96h6.33v12.03c0 2.62 1.65 3.84 3.67 3.84 2.32 0 3.92-1.35 3.92-4.35v-11.52z"/><path d="m83.7883 50.11v20.04c0 7.09-5.53 10.08-11.14 10.08-4.39 0-8.06-1.65-10-5.11l5.4-3.12c.8 1.48 2.03 2.66 4.81 2.66 2.95 0 4.77-1.52 4.77-4.52v-1.94c-1.39 1.73-3.42 2.74-6.16 2.74-5.99 0-10.38-4.89-10.38-10.72 0-5.82 4.39-10.72 10.38-10.72 2.74 0 4.77 1.01 6.16 2.74v-2.15h6.16zm-6.16 10.13c0-2.91-2.11-4.89-5.11-4.89s-5.11 1.98-5.11 4.89 2.11 4.89 5.11 4.89 5.11-1.98 5.11-4.89z"/></g><path clip-rule="evenodd" d="m109.538 0c-13.5397 0-23.1997 7.72-23.1997 18.64 0 8.06 5.59 13.61 11.33 18.46 5.7397 4.85 8.8997 9.85 10.9697 16.61h1.68c2.06-6.76 5.23-11.75 10.97-16.61 5.74-4.85 11.33-10.4 11.33-18.46 0-10.91-9.65-18.64-23.2-18.64" fill="#ffb933" fill-rule="evenodd"/><path clip-rule="evenodd" d="m109.488 71.34c-4 0-7.25-3.25-7.25-7.25s3.25-7.25 7.25-7.25 7.25 3.25 7.25 7.25c.01 4-3.24 7.25-7.25 7.25z" fill="#ffb933" fill-rule="evenodd"/></svg>