<svg fill="none" height="68" viewBox="0 0 269 68" width="269" xmlns="http://www.w3.org/2000/svg" xmlns:xlink="http://www.w3.org/1999/xlink"><clipPath id="a"><path d="m.354248 0h267.874v68h-267.874z"/></clipPath><g clip-path="url(#a)"><path d="m253.664 0h-238.7452c-8.04377 0-14.564552 6.52078-14.564552 14.5646v38.8708c0 8.0438 6.520782 14.5646 14.564552 14.5646h238.7452c8.043 0 14.564-6.5208 14.564-14.5646v-38.8708c0-8.04382-6.521-14.5646-14.564-14.5646z" fill="#00458c"/><path d="m234.913 47.0194c0-4.9398 4.086-9.0253 9.026-9.0253 4.939 0 9.025 4.0855 9.025 9.0253s-4.086 9.0253-9.025 9.0253c-4.94 0-9.026-4.0855-9.026-9.0253z" fill="#ff5100"/><g fill="#fff"><path d="m75.6185 12.952h-26.7372v9.295h10.8643v32.9539h9.6562v-32.9539h10.8643v-4.6475c0-2.5658-2.0802-4.6475-4.6476-4.6475z"/><path d="m104.545 45.9058h-10.4412v-28.125c0-2.6662-2.1612-4.8288-4.8289-4.8288h-4.8289v34.7268c0 4.153 3.3677 7.5206 7.5206 7.5206h17.2244v-4.6475c0-2.5673-2.08-4.6476-4.647-4.6476z"/><path d="m39.2161 39.6891c4.6475-2.3544 7.7858-7.0619 7.7858-12.252 0-8.0272-6.458-14.4851-14.4851-14.4851h-7.597c-5.1377 0-9.3026 4.1649-9.3026 9.3025v32.9464h9.6563v-13.8811h4.5875l7.9672 13.8811h10.3817l-8.9923-15.5118zm-6.6993-6.8206h-7.2418v-8.1486c0-1.5392 1.0865-2.7157 2.4144-2.7157h4.8289c2.6557 0 4.8289 2.3545 4.8289 5.4314s-2.1732 5.4314-4.8289 5.4314z"/><path d="m196.585 40.1088c0-8.9938 7.122-15.9359 15.996-15.9359s15.996 6.9421 15.996 15.9359-7.124 15.9359-15.996 15.9359c-8.873 0-15.996-6.9421-15.996-15.9359zm22.938 0c0-4.2864-3.019-7.1234-6.942-7.1234-3.924 0-6.942 2.837-6.942 7.1234 0 4.2863 3.018 7.1219 6.942 7.1219 3.923 0 6.942-2.8371 6.942-7.1219z"/><path d="m190.067 25.0182h5.614v8.6925h-5.614v21.4887h-9.054v-21.4887h-4.043v-8.6925h4.043c0-8.4513 4.648-13.5215 14.668-12.9175v8.6926c-3.379-.3013-5.614.7238-5.614 4.2249z"/><path d="m172.866 36.6677v18.5317h-9.054v-17.2038c0-3.7423-2.354-5.4928-5.251-5.4928-3.32 0-5.614 1.9318-5.614 6.2167v16.4784h-9.054v-30.1812h9.054v2.837c1.629-2.2331 4.647-3.6823 8.631-3.6823 6.097 0 11.288 4.3463 11.288 12.4948z"/><path d="m127.293 16.9296c0-2.9585 2.474-5.4329 5.433-5.4329 2.958 0 5.433 2.4744 5.433 5.4329 0 2.9584-2.475 5.4328-5.433 5.4328-2.959 0-5.433-2.4744-5.433-5.4328zm.905 8.0886h9.054v30.1812h-9.054z"/></g></g></svg>