<svg fill="none" height="72" viewBox="0 0 136 72" width="136" xmlns="http://www.w3.org/2000/svg" xmlns:xlink="http://www.w3.org/1999/xlink"><clipPath id="a"><path d="m.965073 0h134.68v71.33h-134.68z"/></clipPath><g clip-path="url(#a)"><g fill="#fff"><path d="m56.8651 1.24001h-23.86v8.29h9.69v29.39999h8.62v-29.38999h9.69v-4.15c.01-2.29-1.85-4.15-4.14-4.15z"/><path d="m82.6751 30.65h-9.32v-25.09999c0-2.38-1.93-4.31-4.31-4.31h-4.31v30.98999c0 3.71 3 6.71 6.71 6.71h15.37v-4.15c.01-2.29-1.85-4.14-4.14-4.14z"/><path d="m24.3851 25.1c4.15-2.1 6.95-6.3 6.95-10.93 0-7.16999-5.77-12.92999-12.93-12.92999h-6.78c-4.58003 0-8.30003 3.72-8.30003 8.3v29.39999h8.62003v-12.39h4.09l7.11 12.39h9.26zm-5.98-6.09h-6.46v-7.27c0-1.37.97-2.41999 2.15-2.41999h4.31c2.37 0 4.31 2.09999 4.31 4.84999 0 2.74-1.94 4.84-4.31 4.84z"/><path d="m10.6651 56.12v7.47c0 1.81 1.56 1.98 4.35 1.81v5.74c-8.27003.85-10.67003-1.64-10.67003-7.55v-7.47h-3.379997v-6.08h3.379997v-3.08l6.33003-1.9v4.98h4.35v6.08z"/><path d="m58.4651 50.05-7.8 21.09h-7.17l-7.8-21.09h7l4.39 13.37 4.39-13.37z"/><path d="m79.7751 50.05h6.33v21.09h-6.33z"/></g><path clip-rule="evenodd" d="m112.565 0c-13.5399 0-23.1899 7.72-23.1899 18.63 0 8.06 5.59 13.61 11.3299 18.46 5.74 4.85 8.9 9.84 10.96 16.6h1.68c2.06-6.76 5.23-11.75 10.96-16.6s11.33-10.4 11.33-18.46c.01-10.91-9.64-18.63-23.18-18.63" fill="#eb413d" fill-rule="evenodd"/><path clip-rule="evenodd" d="m112.515 71.33c-4 0-7.25-3.25-7.25-7.25s3.25-7.25 7.25-7.25 7.25 3.25 7.25 7.25c.01 4-3.24 7.25-7.25 7.25z" fill="#eb413d" fill-rule="evenodd"/></g></svg>