<svg fill="none" height="69" viewBox="0 0 335 69" width="335" xmlns="http://www.w3.org/2000/svg" xmlns:xlink="http://www.w3.org/1999/xlink"><radialGradient id="a" cx="2.40976" cy="36.377" gradientUnits="userSpaceOnUse" r="301.95"><stop offset="0" stop-color="#3cf"/><stop offset="1" stop-color="#0a2933"/></radialGradient><clipPath id="b"><path d="m.364258 0h333.99v68.21h-333.99z"/></clipPath><mask id="c" height="69" maskUnits="userSpaceOnUse" width="335" x="0" y="0"><path d="m15.9343 0h302.8597c8.59 0 15.57 6.98 15.57 15.57v37.07c0 8.59-6.97 15.57-15.57 15.57h-302.8597c-8.59004 0-15.570042-6.98-15.570042-15.57v-37.07c0-8.6 6.970002-15.57 15.570042-15.57z" fill="#fff"/></mask><mask id="d" height="69" maskUnits="userSpaceOnUse" width="335" x="0" y="0"><path d="m334.354 0h-333.989742v68.21h333.989742z" fill="#fff"/></mask><g clip-path="url(#b)"><g mask="url(#c)"><path d="m334.354 0h-333.989742v68.21h333.989742z" fill="url(#a)"/></g><g mask="url(#d)"><path d="m301.274 47.07c0-4.95 4.09-9.03 9.03-9.03s9.04 4.09 9.04 9.03-4.09 9.03-9.04 9.03-9.03-4.09-9.03-9.03z" fill="#3cf"/><g fill="#fff"><path d="m76.7943 12.96h-26.77v9.3h10.88v32.99h9.66v-32.98h10.88v-4.65c0-2.57-2.08-4.65-4.65-4.65"/><path d="m105.754 45.95h-10.4497v-28.15c0-2.67-2.16-4.83-4.83-4.83h-4.83v34.76c0 4.16 3.37 7.53 7.53 7.53h17.2397v-4.65c0-2.57-2.08-4.65-4.65-4.65"/><path d="m40.3543 39.73c4.65-2.36 7.79-7.07 7.79-12.26 0-8.04-6.47-14.5-14.5-14.5h-7.6c-5.14 0-9.31 4.17-9.31 9.31v32.98h9.67v-13.9h4.59l7.98 13.9h10.39l-9-15.53zm-6.7-6.83h-7.25v-8.16c0-1.54 1.09-2.72 2.42-2.72h4.83c2.66 0 4.83 2.36 4.83 5.44s-2.17 5.44-4.83 5.44z"/><path d="m149.164 46.46c0 6.97-6.06 9.94-12.61 9.94-6.06 0-10.67-2.3-13.04-7.21l7.88-4.49c.79 2.3 2.49 3.58 5.15 3.58 2.18 0 3.27-.67 3.27-1.88 0-3.34-14.92-1.58-14.92-12.07 0-6.61 5.58-9.94 11.88-9.94 4.91 0 9.28 2.18 11.82 6.49l-7.76 4.18c-.85-1.58-2.06-2.67-4.06-2.67-1.58 0-2.55.61-2.55 1.7 0 3.46 14.92 1.15 14.92 12.37"/><path d="m185.414 40.39c0 9.03-6.55 16.01-14.49 16.01-4.06 0-7.03-1.39-9.03-3.7v13.69h-9.1v-41.15h9.1v2.85c2-2.3 4.97-3.7 9.03-3.7 7.94 0 14.49 6.97 14.49 16.01m-9.09-.01c0-4.55-3.03-7.4-7.22-7.4s-7.21 2.85-7.21 7.4 3.03 7.4 7.21 7.4 7.22-2.85 7.22-7.4z"/><path d="m188.694 40.39c0-9.03 7.15-16.01 16.07-16.01s16.07 6.97 16.07 16.01-7.16 16.01-16.07 16.01-16.07-6.97-16.07-16.01zm23.04 0c0-4.3-3.03-7.15-6.97-7.15s-6.97 2.85-6.97 7.15 3.03 7.15 6.97 7.15 6.97-2.85 6.97-7.15z"/><path d="m242.524 24.63v10.31c-3.76-.61-9.09.91-9.09 6.91v13.7h-9.1v-30.32h9.1v5.4c1.21-4.06 5.27-6 9.09-6z"/><path d="m258.834 33.97v10.73c0 2.61 2.24 2.85 6.24 2.61v8.24c-11.88 1.21-15.34-2.37-15.34-10.85v-10.73h-4.85v-8.73h4.85v-5.76l9.09-2.73v8.49h6.24v8.73h-6.24z"/><path d="m293.084 46.46c0 6.97-6.06 9.94-12.61 9.94-6.06 0-10.67-2.3-13.04-7.21l7.88-4.49c.79 2.3 2.49 3.58 5.15 3.58 2.18 0 3.27-.67 3.27-1.88 0-3.34-14.91-1.58-14.91-12.07 0-6.61 5.58-9.94 11.88-9.94 4.91 0 9.27 2.18 11.82 6.49l-7.76 4.18c-.85-1.58-2.06-2.67-4.06-2.67-1.58 0-2.55.61-2.55 1.7 0 3.46 14.92 1.15 14.92 12.37"/></g></g></g></svg>